<svg xmlns="http://www.w3.org/2000/svg" version="1.1" xmlns:xlink="http://www.w3.org/1999/xlink" xmlns:svgjs="http://svgjs.dev/svgjs" width="1500" height="1500" viewBox="0 0 1500 1500"><rect width="1500" height="1500" fill="#000000"></rect><g transform="matrix(0.6666666666666666,0,0,0.6666666666666666,249.39393939393938,615.3108280460605)"><svg viewBox="0 0 396 106" data-background-color="#ffffff" preserveAspectRatio="xMidYMid meet" height="401" width="1500" xmlns="http://www.w3.org/2000/svg" xmlns:xlink="http://www.w3.org/1999/xlink"><g id="tight-bounds" transform="matrix(1,0,0,1,0.2400000000000091,0.405432271013467)"><svg viewBox="0 0 395.52 105.18913545797304" height="105.18913545797304" width="395.52"><g><svg viewBox="0 0 395.52 105.18913545797304" height="105.18913545797304" width="395.52"><g transform="matrix(1,0,0,1,0,65.01110569184974)"><svg viewBox="0 0 395.52 40.17802976612331" height="40.17802976612331" width="395.52"><g id="textblocktransform"><svg viewBox="0 0 395.52 40.17802976612331" height="40.17802976612331" width="395.52" id="textblock"><g><svg viewBox="0 0 395.52 40.17802976612331" height="40.17802976612331" width="395.52"><g transform="matrix(1,0,0,1,0,0)"><svg width="395.52" viewBox="2.7 -32.9 423.26 43" height="40.17802976612331" data-palette-color="#556970"><path d="M12.85-2.75L12.85-2.75Q16.2-2.75 17.93-4.28 19.65-5.8 19.65-8.2L19.65-8.2Q19.65-10.25 18.32-11.6 17-12.95 14.15-13.75L14.15-13.75 9.8-15.05Q7.7-15.7 6.15-16.73 4.6-17.75 3.78-19.28 2.95-20.8 2.95-22.85L2.95-22.85Q2.95-26.7 5.75-28.88 8.55-31.05 13.2-31.05L13.2-31.05Q15.9-31.05 18.03-30.48 20.15-29.9 21.38-29 22.6-28.1 22.6-27.1L22.6-27.1Q22.6-26.45 22.25-25.93 21.9-25.4 21.35-25.1L21.35-25.1Q20.1-26.1 17.98-26.85 15.85-27.6 13.35-27.6L13.35-27.6Q10.45-27.6 8.75-26.33 7.05-25.05 7.05-22.85L7.05-22.85Q7.05-21.1 8.28-20 9.5-18.9 12.25-18.1L12.25-18.1 15.3-17.2Q19.25-16.1 21.53-14 23.8-11.9 23.8-8.2L23.8-8.2Q23.8-4.25 20.93-1.8 18.05 0.65 12.85 0.65L12.85 0.65Q9.8 0.65 7.53-0.03 5.25-0.7 3.98-1.73 2.7-2.75 2.7-3.75L2.7-3.75Q2.7-4.6 3.23-5.18 3.75-5.75 4.45-6L4.45-6Q5.6-4.9 7.7-3.83 9.8-2.75 12.85-2.75ZM48.15-11.35L31.35-9 31.15-12.15 46.25-14.2Q46.05-16.95 44.35-18.73 42.65-20.5 39.65-20.5L39.65-20.5Q36.55-20.5 34.52-18.28 32.5-16.05 32.5-11.9L32.5-11.9 32.5-10.8Q32.85-6.8 35.12-4.73 37.4-2.65 41.35-2.65L41.35-2.65Q43.45-2.65 45.15-3.35 46.85-4.05 47.85-4.85L47.85-4.85Q48.4-4.5 48.72-4.03 49.05-3.55 49.05-2.95L49.05-2.95Q49.05-2 47.97-1.18 46.9-0.35 45.12 0.15 43.35 0.65 41.15 0.65L41.15 0.65Q37.3 0.65 34.47-0.75 31.65-2.15 30.12-4.93 28.6-7.7 28.6-11.7L28.6-11.7Q28.6-14.55 29.42-16.78 30.25-19 31.72-20.55 33.2-22.1 35.25-22.93 37.3-23.75 39.7-23.75L39.7-23.75Q42.75-23.75 45.07-22.45 47.4-21.15 48.72-18.82 50.05-16.5 50.05-13.5L50.05-13.5Q50.05-12.4 49.55-11.93 49.05-11.45 48.15-11.35L48.15-11.35ZM74.5-16L74.5-16 74.5-10.25 70.5-10.25 70.5-15.7Q70.5-18.15 69.07-19.3 67.65-20.45 65.3-20.45L65.3-20.45Q63.75-20.45 62.3-19.95 60.85-19.45 59.85-18.8L59.85-18.8 59.85-10.25 55.85-10.25 55.85-18.6Q55.85-19.6 56.27-20.3 56.7-21 57.75-21.65L57.75-21.65Q59.1-22.5 61.17-23.13 63.25-23.75 65.34-23.75L65.34-23.75Q67.9-23.75 69.84-22.98 71.8-22.2 72.75-20.85L72.75-20.85Q73.05-20.55 73.25-20.3 73.45-20.05 73.65-19.65L73.65-19.65Q74-19.05 74.25-18.1 74.5-17.15 74.5-16ZM89.15-15.9L89.15-15.9 89.15-10.25 85.15-10.25 85.15-15.7Q85.15-18.15 83.75-19.3 82.34-20.45 80-20.45L80-20.45Q78.25-20.45 76.62-19.73 75-19 73.7-17.65L73.7-17.65 72.09-20.55Q73.4-21.85 75.5-22.8 77.59-23.75 80.3-23.75L80.3-23.75Q83-23.75 84.97-22.9 86.95-22.05 88.05-20.3 89.15-18.55 89.15-15.9ZM55.85-1.55L55.85-12.9 59.85-12.9 59.85-0.1Q59.6 0 59.1 0.13 58.6 0.25 58 0.25L58 0.25Q56.95 0.25 56.4-0.18 55.85-0.6 55.85-1.55L55.85-1.55ZM70.5-1.55L70.5-12.9 74.5-12.9 74.5-0.1Q74.25 0 73.72 0.13 73.2 0.25 72.65 0.25L72.65 0.25Q71.55 0.25 71.02-0.18 70.5-0.6 70.5-1.55L70.5-1.55ZM85.15-1.55L85.15-12.9 89.15-12.9 89.15-0.1Q88.9 0 88.37 0.13 87.84 0.25 87.3 0.25L87.3 0.25Q86.2 0.25 85.67-0.18 85.15-0.6 85.15-1.55L85.15-1.55ZM104.89 0.7L104.89 0.7Q100.19 0.7 97.62-1.15 95.04-3 95.04-6.5L95.04-6.5Q95.04-9.75 97.22-11.48 99.39-13.2 103.24-13.55L103.24-13.55 110.34-14.25 110.34-15.65Q110.34-18.15 108.84-19.3 107.34-20.45 104.79-20.45L104.79-20.45Q102.74-20.45 100.87-19.85 98.99-19.25 97.54-18.5L97.54-18.5Q97.14-18.85 96.82-19.33 96.49-19.8 96.49-20.3L96.49-20.3Q96.49-21.6 97.94-22.3L97.94-22.3Q99.29-23 101.07-23.38 102.84-23.75 104.84-23.75L104.84-23.75Q109.19-23.75 111.74-21.8 114.29-19.85 114.29-15.65L114.29-15.65 114.29-3.8Q114.29-2.7 113.87-2.13 113.44-1.55 112.59-1.05L112.59-1.05Q111.39-0.4 109.39 0.15 107.39 0.7 104.89 0.7ZM104.89-2.6L104.89-2.6Q106.99-2.6 108.37-3.03 109.74-3.45 110.34-3.85L110.34-3.85 110.34-11.1 104.14-10.45Q101.54-10.25 100.29-9.3 99.04-8.35 99.04-6.55L99.04-6.55Q99.04-4.7 100.52-3.65 101.99-2.6 104.89-2.6ZM141.59-15.25L141.59-15.25 141.59-10.15 137.59-10.15 137.59-15.05Q137.59-17.85 136.02-19.15 134.44-20.45 131.79-20.45L131.79-20.45Q129.79-20.45 128.24-19.95 126.69-19.45 125.59-18.8L125.59-18.8 125.59-10.15 121.59-10.15 121.59-18.6Q121.59-19.65 122.02-20.33 122.44-21 123.49-21.65L123.49-21.65Q124.79-22.4 126.94-23.08 129.09-23.75 131.79-23.75L131.79-23.75Q136.34-23.75 138.97-21.68 141.59-19.6 141.59-15.25ZM121.59-1.55L121.59-12.9 125.59-12.9 125.59-0.1Q125.34 0 124.84 0.13 124.34 0.25 123.74 0.25L123.74 0.25Q122.69 0.25 122.14-0.18 121.59-0.6 121.59-1.55L121.59-1.55ZM137.59-1.55L137.59-12.9 141.59-12.9 141.59-0.1Q141.34 0 140.82 0.13 140.29 0.25 139.74 0.25L139.74 0.25Q138.64 0.25 138.12-0.18 137.59-0.6 137.59-1.55L137.59-1.55ZM149.14-6.05L149.14-13.2 153.14-13.2 153.14-6.3Q153.14-4.3 154.29-3.48 155.44-2.65 157.44-2.65L157.44-2.65Q158.29-2.65 159.34-2.95 160.39-3.25 161.09-3.65L161.09-3.65Q161.39-3.35 161.64-2.9 161.89-2.45 161.89-1.85L161.89-1.85Q161.89-0.75 160.59-0.05 159.29 0.65 156.99 0.65L156.99 0.65Q153.49 0.65 151.31-0.9 149.14-2.45 149.14-6.05L149.14-6.05ZM160.29-19.3L151.19-19.3 151.19-22.6 161.34-22.6Q161.49-22.4 161.64-21.95 161.79-21.5 161.79-21L161.79-21Q161.79-20.2 161.39-19.75 160.99-19.3 160.29-19.3L160.29-19.3ZM153.14-28.35L153.14-11.7 149.14-11.7 149.14-29.8Q149.39-29.9 149.91-30.03 150.44-30.15 151.04-30.15L151.04-30.15Q152.09-30.15 152.61-29.73 153.14-29.3 153.14-28.35L153.14-28.35ZM167.34-30.4L167.34-30.4Q167.34-31.45 168.09-32.18 168.84-32.9 169.94-32.9L169.94-32.9Q171.09-32.9 171.79-32.18 172.49-31.45 172.49-30.4L172.49-30.4Q172.49-29.35 171.79-28.63 171.09-27.9 169.94-27.9L169.94-27.9Q168.84-27.9 168.09-28.63 167.34-29.35 167.34-30.4ZM167.94-1.55L167.94-13.2 171.94-13.2 171.94-0.1Q171.69 0 171.19 0.13 170.69 0.25 170.09 0.25L170.09 0.25Q169.04 0.25 168.49-0.18 167.94-0.6 167.94-1.55L167.94-1.55ZM171.94-21.5L171.94-11.25 167.94-11.25 167.94-23Q168.19-23.1 168.71-23.23 169.24-23.35 169.84-23.35L169.84-23.35Q170.89-23.35 171.41-22.93 171.94-22.5 171.94-21.5L171.94-21.5ZM190.43-20.4L190.43-20.4Q187.03-20.4 184.78-18.1 182.53-15.8 182.53-11.5L182.53-11.5Q182.53-7.25 184.71-4.95 186.88-2.65 190.43-2.65L190.43-2.65Q192.53-2.65 193.93-3.23 195.33-3.8 196.43-4.55L196.43-4.55Q196.98-4.25 197.33-3.8 197.68-3.35 197.68-2.7L197.68-2.7Q197.68-1.3 195.61-0.33 193.53 0.65 190.43 0.65L190.43 0.65Q186.98 0.65 184.26-0.68 181.53-2 179.98-4.7 178.43-7.4 178.43-11.5L178.43-11.5Q178.43-15.55 180.03-18.28 181.63-21 184.36-22.38 187.08-23.75 190.33-23.75L190.33-23.75Q193.43-23.75 195.46-22.7 197.48-21.65 197.48-20.3L197.48-20.3Q197.48-19.7 197.13-19.25 196.78-18.8 196.23-18.55L196.23-18.55Q195.13-19.3 193.81-19.85 192.48-20.4 190.43-20.4ZM236.53-27.05L236.53-27.05Q236.53-26.4 236.1-25.88 235.68-25.35 235.13-25.1L235.13-25.1Q233.88-26 232.1-26.8 230.33-27.6 227.53-27.6L227.53-27.6Q224.48-27.6 222.05-26.2 219.63-24.8 218.2-22.03 216.78-19.25 216.78-15.15L216.78-15.15Q216.78-9 219.8-5.9 222.83-2.8 227.68-2.8L227.68-2.8Q230.28-2.8 232.23-3.55 234.18-4.3 235.43-5.25L235.43-5.25Q235.93-5.05 236.38-4.53 236.83-4 236.83-3.3L236.83-3.3Q236.83-2.8 236.55-2.33 236.28-1.85 235.63-1.4L235.63-1.4Q234.48-0.6 232.48 0.03 230.48 0.65 227.38 0.65L227.38 0.65Q223.23 0.65 219.85-1.13 216.48-2.9 214.53-6.4 212.58-9.9 212.58-15.15L212.58-15.15Q212.58-20.4 214.6-23.95 216.63-27.5 219.95-29.28 223.28-31.05 227.23-31.05L227.23-31.05Q229.98-31.05 232.08-30.45 234.18-29.85 235.35-28.93 236.53-28 236.53-27.05ZM251.28 0.7L251.28 0.7Q246.58 0.7 244-1.15 241.43-3 241.43-6.5L241.43-6.5Q241.43-9.75 243.6-11.48 245.78-13.2 249.63-13.55L249.63-13.55 256.73-14.25 256.73-15.65Q256.73-18.15 255.23-19.3 253.73-20.45 251.18-20.45L251.18-20.45Q249.13-20.45 247.25-19.85 245.38-19.25 243.93-18.5L243.93-18.5Q243.53-18.85 243.2-19.33 242.88-19.8 242.88-20.3L242.88-20.3Q242.88-21.6 244.33-22.3L244.33-22.3Q245.68-23 247.45-23.38 249.23-23.75 251.23-23.75L251.23-23.75Q255.58-23.75 258.13-21.8 260.68-19.85 260.68-15.65L260.68-15.65 260.68-3.8Q260.68-2.7 260.25-2.13 259.83-1.55 258.98-1.05L258.98-1.05Q257.78-0.4 255.78 0.15 253.78 0.7 251.28 0.7ZM251.28-2.6L251.28-2.6Q253.38-2.6 254.75-3.03 256.13-3.45 256.73-3.85L256.73-3.85 256.73-11.1 250.53-10.45Q247.93-10.25 246.68-9.3 245.43-8.35 245.43-6.55L245.43-6.55Q245.43-4.7 246.9-3.65 248.38-2.6 251.28-2.6ZM268.02-6.05L268.02-13.2 272.02-13.2 272.02-6.3Q272.02-4.3 273.17-3.48 274.32-2.65 276.32-2.65L276.32-2.65Q277.17-2.65 278.22-2.95 279.27-3.25 279.97-3.65L279.97-3.65Q280.27-3.35 280.52-2.9 280.77-2.45 280.77-1.85L280.77-1.85Q280.77-0.75 279.47-0.05 278.17 0.65 275.87 0.65L275.87 0.65Q272.37 0.65 270.2-0.9 268.02-2.45 268.02-6.05L268.02-6.05ZM279.17-19.3L270.07-19.3 270.07-22.6 280.22-22.6Q280.37-22.4 280.52-21.95 280.67-21.5 280.67-21L280.67-21Q280.67-20.2 280.27-19.75 279.87-19.3 279.17-19.3L279.17-19.3ZM272.02-28.35L272.02-11.7 268.02-11.7 268.02-29.8Q268.27-29.9 268.8-30.03 269.32-30.15 269.92-30.15L269.92-30.15Q270.97-30.15 271.5-29.73 272.02-29.3 272.02-28.35L272.02-28.35ZM294.82 0.7L294.82 0.7Q290.12 0.7 287.55-1.15 284.97-3 284.97-6.5L284.97-6.5Q284.97-9.75 287.15-11.48 289.32-13.2 293.17-13.55L293.17-13.55 300.27-14.25 300.27-15.65Q300.27-18.15 298.77-19.3 297.27-20.45 294.72-20.45L294.72-20.45Q292.67-20.45 290.8-19.85 288.92-19.25 287.47-18.5L287.47-18.5Q287.07-18.85 286.75-19.33 286.42-19.8 286.42-20.3L286.42-20.3Q286.42-21.6 287.87-22.3L287.87-22.3Q289.22-23 291-23.38 292.77-23.75 294.77-23.75L294.77-23.75Q299.12-23.75 301.67-21.8 304.22-19.85 304.22-15.65L304.22-15.65 304.22-3.8Q304.22-2.7 303.8-2.13 303.37-1.55 302.52-1.05L302.52-1.05Q301.32-0.4 299.32 0.15 297.32 0.7 294.82 0.7ZM294.82-2.6L294.82-2.6Q296.92-2.6 298.3-3.03 299.67-3.45 300.27-3.85L300.27-3.85 300.27-11.1 294.07-10.45Q291.47-10.25 290.22-9.3 288.97-8.35 288.97-6.55L288.97-6.55Q288.97-4.7 290.45-3.65 291.92-2.6 294.82-2.6ZM311.92-1.55L311.92-13.2 315.92-12.6 315.92-0.1Q315.67 0 315.17 0.13 314.67 0.25 314.07 0.25L314.07 0.25Q313.02 0.25 312.47-0.18 311.92-0.6 311.92-1.55L311.92-1.55ZM315.92-30.95L315.92-10.7 311.92-11.25 311.92-32.4Q312.17-32.5 312.69-32.63 313.22-32.75 313.77-32.75L313.77-32.75Q314.87-32.75 315.39-32.33 315.92-31.9 315.92-30.95L315.92-30.95ZM345.27-11.55L345.27-11.55Q345.27-7.85 343.87-5.1 342.47-2.35 339.92-0.85 337.37 0.65 333.92 0.65L333.92 0.65Q330.47 0.65 327.89-0.85 325.32-2.35 323.92-5.1 322.52-7.85 322.52-11.55L322.52-11.55Q322.52-15.3 323.94-18.03 325.37-20.75 327.94-22.25 330.52-23.75 333.92-23.75L333.92-23.75Q337.32-23.75 339.87-22.25 342.42-20.75 343.84-18.03 345.27-15.3 345.27-11.55ZM333.92-20.45L333.92-20.45Q330.57-20.45 328.59-18.07 326.62-15.7 326.62-11.55L326.62-11.55Q326.62-7.35 328.54-5 330.47-2.65 333.92-2.65L333.92-2.65Q337.32-2.65 339.24-5.03 341.17-7.4 341.17-11.55L341.17-11.55Q341.17-15.7 339.24-18.07 337.32-20.45 333.92-20.45ZM361.06-0.7L361.06-0.7Q358.16-0.7 355.71-1.83 353.26-2.95 351.76-5.5 350.26-8.05 350.26-12.25L350.26-12.25Q350.26-16.05 351.74-18.6 353.21-21.15 355.81-22.45 358.41-23.75 361.76-23.75L361.76-23.75Q364.06-23.75 365.99-23.18 367.91-22.6 369.21-21.75L369.21-21.75Q369.96-21.25 370.44-20.63 370.91-20 370.91-19.1L370.91-19.1 370.91-3.65 366.91-3.65 366.91-19.05Q366.06-19.6 364.79-20.03 363.51-20.45 361.76-20.45L361.76-20.45Q358.41-20.45 356.36-18.4 354.31-16.35 354.31-12.3L354.31-12.3Q354.31-7.8 356.39-5.9 358.46-4 361.51-4L361.51-4Q363.71-4 365.06-4.75 366.41-5.5 367.21-6.4L367.21-6.4 367.41-2.85Q366.66-2.05 365.04-1.38 363.41-0.7 361.06-0.7ZM366.91 0.75L366.91 0.75 366.91-4.5 370.91-4.5 370.91 1Q370.91 4.3 369.49 6.3 368.06 8.3 365.59 9.2 363.11 10.1 360.01 10.1L360.01 10.1Q357.51 10.1 355.71 9.55 353.91 9 353.26 8.65L353.26 8.65Q351.76 7.8 351.76 6.5L351.76 6.5Q351.76 5.8 352.09 5.33 352.41 4.85 352.91 4.6L352.91 4.6Q353.96 5.4 355.89 6.08 357.81 6.75 360.01 6.75L360.01 6.75Q363.36 6.75 365.14 5.3 366.91 3.85 366.91 0.75ZM378.31-8.45L378.31-8.45 378.31-13 382.31-13 382.31-8.65Q382.31-5.45 384.01-4.05 385.71-2.65 388.71-2.65L388.71-2.65Q390.71-2.65 392.11-3.08 393.51-3.5 394.31-3.95L394.31-3.95 394.31-13 398.31-13 398.31-4.1Q398.31-3.05 398.04-2.43 397.76-1.8 396.71-1.2L396.71-1.2Q395.61-0.55 393.56 0.05 391.51 0.65 388.66 0.65L388.66 0.65Q385.36 0.65 383.04-0.33 380.71-1.3 379.51-3.33 378.31-5.35 378.31-8.45ZM398.31-21.5L398.31-10.4 394.31-10.4 394.31-23Q394.56-23.1 395.09-23.23 395.61-23.35 396.16-23.35L396.16-23.35Q397.26-23.35 397.79-22.93 398.31-22.5 398.31-21.5L398.31-21.5ZM382.31-21.5L382.31-10.4 378.31-10.4 378.31-23Q378.56-23.1 379.09-23.23 379.61-23.35 380.21-23.35L380.21-23.35Q381.26-23.35 381.79-22.93 382.31-22.5 382.31-21.5L382.31-21.5ZM424.06-11.35L407.26-9 407.06-12.15 422.16-14.2Q421.96-16.95 420.26-18.73 418.56-20.5 415.56-20.5L415.56-20.5Q412.46-20.5 410.43-18.28 408.41-16.05 408.41-11.9L408.41-11.9 408.41-10.8Q408.76-6.8 411.03-4.73 413.31-2.65 417.26-2.65L417.26-2.65Q419.36-2.65 421.06-3.35 422.76-4.05 423.76-4.85L423.76-4.85Q424.31-4.5 424.63-4.03 424.96-3.55 424.96-2.95L424.96-2.95Q424.96-2 423.88-1.18 422.81-0.35 421.03 0.15 419.26 0.65 417.06 0.65L417.06 0.65Q413.21 0.65 410.38-0.75 407.56-2.15 406.03-4.93 404.51-7.7 404.51-11.7L404.51-11.7Q404.51-14.55 405.33-16.78 406.16-19 407.63-20.55 409.11-22.1 411.16-22.93 413.21-23.75 415.61-23.75L415.61-23.75Q418.66-23.75 420.98-22.45 423.31-21.15 424.63-18.82 425.96-16.5 425.96-13.5L425.96-13.5Q425.96-12.4 425.46-11.93 424.96-11.45 424.06-11.35L424.06-11.35Z" opacity="1" transform="matrix(1,0,0,1,0,0)" fill="#ffffff" class="wordmark-text-0" data-fill-palette-color="primary" id="text-0"></path></svg></g></svg></g></svg></g></svg></g><g transform="matrix(1,0,0,1,169.3449451487912,0)"><svg viewBox="0 0 56.83010970241761 55.52603713678241" height="55.52603713678241" width="56.83010970241761"><g><svg xmlns="http://www.w3.org/2000/svg" xmlns:xlink="http://www.w3.org/1999/xlink" version="1.1" x="0" y="0" viewBox="8.6 9.6 82.80000000000001 80.9" style="enable-background:new 0 0 100 100;" xml:space="preserve" height="55.52603713678241" width="56.83010970241761" class="icon-icon-0" data-fill-palette-color="accent" id="icon-0"><g fill="#aba944" data-fill-palette-color="accent"><path d="M50 60.4C55.7 60.4 60.4 55.7 60.4 50 60.4 47.7 59.6 45.4 58.2 43.6L74.1 27.7C76 29.4 78.5 30.4 81 30.4 86.7 30.4 91.4 25.7 91.4 20S86.7 9.6 81 9.6 70.6 14.3 70.6 20C70.6 21.3 70.8 22.4 71.3 23.7L54.4 40.6C53 39.9 51.5 39.6 50 39.6 44.3 39.6 39.6 44.3 39.6 50S44.3 60.4 50 60.4" fill="#ffffff" data-fill-palette-color="accent"></path><path d="M50 30.4C55.7 30.4 60.4 25.7 60.4 20S55.7 9.6 50 9.6 39.6 14.3 39.6 20 44.3 30.4 50 30.4" fill="#ffffff" data-fill-palette-color="accent"></path><path d="M81 39.6C75.3 39.6 70.6 44.3 70.6 50S75.3 60.4 81 60.4 91.4 55.7 91.4 50 86.7 39.6 81 39.6" fill="#ffffff" data-fill-palette-color="accent"></path><path d="M19 69.6C13.3 69.6 8.6 74.3 8.6 80S13.3 90.4 19 90.4 29.4 85.7 29.4 80 24.7 69.6 19 69.6" fill="#ffffff" data-fill-palette-color="accent"></path><path d="M81 69.6C76.2 69.6 72 72.9 70.9 77.6H60.1C59 72.9 54.8 69.6 50 69.6 47 69.6 44.2 70.9 42.3 73.1L26.3 57.3C28.2 55.3 29.3 52.7 29.3 50 29.3 45.2 26 41 21.3 39.9V30.1C26 29 29.3 24.8 29.3 20 29.3 14.3 24.6 9.6 18.9 9.6S8.6 14.3 8.6 20C8.6 24.8 11.9 29 16.6 30.1V39.9C11.9 41 8.6 45.2 8.6 50 8.6 55.7 13.3 60.4 19 60.4 20.1 60.4 21.2 60.2 22.2 59.9L39.9 77.6C39.7 78.5 39.6 79.2 39.6 80.1 39.6 85.8 44.3 90.5 50 90.5 54.8 90.5 59 87.2 60.1 82.5H70.9C72 87.2 76.2 90.5 81 90.5 86.7 90.5 91.4 85.8 91.4 80.1S86.7 69.6 81 69.6" fill="#ffffff" data-fill-palette-color="accent"></path></g></svg></g></svg></g><g></g></svg></g><defs></defs></svg><rect width="395.52" height="105.18913545797304" fill="none" stroke="none" visibility="hidden"></rect></g></svg></g></svg>